<svg xmlns="http://www.w3.org/2000/svg" xmlns:xlink="http://www.w3.org/1999/xlink" width="349" zoomAndPan="magnify" viewBox="0 0 261.75 62.999997" height="84" preserveAspectRatio="xMidYMid meet" version="1.0"><defs><g/><clipPath id="210f0623a1"><path d="M 197 20 L 220 20 L 220 58.53125 L 197 58.53125 Z M 197 20 " clip-rule="nonzero"/></clipPath><clipPath id="bfa8ff652a"><path d="M 207 0.03125 L 252 0.03125 L 252 42 L 207 42 Z M 207 0.03125 " clip-rule="nonzero"/></clipPath></defs><path fill="#487319" d="M 247.789062 8.007812 C 252.527344 6.984375 256.507812 4.8125 259.734375 1.472656 C 261.136719 13.140625 259.945312 23.707031 256.128906 33.164062 C 253.867188 36.460938 250.261719 38.675781 245.339844 39.824219 C 250.03125 35.566406 252.964844 29.449219 252.964844 22.621094 C 252.964844 17.089844 251.039062 11.992188 247.789062 8.007812 Z M 247.789062 8.007812 " fill-opacity="1" fill-rule="evenodd"/><g clip-path="url(#210f0623a1)"><path fill="#487319" d="M 205.105469 57.089844 C 207.203125 48.988281 211.917969 44.457031 219.230469 43.457031 C 211.5625 39.636719 206.300781 31.746094 206.300781 22.621094 C 206.300781 22.035156 206.324219 21.453125 206.363281 20.867188 C 199.449219 25.480469 196.640625 30.910156 197.941406 37.171875 C 199.699219 42.664062 204.183594 45.023438 211.414062 44.25 C 205.359375 48.53125 202.003906 53.164062 201.292969 58.195312 C 202.699219 58.53125 203.976562 58.175781 205.105469 57.089844 Z M 205.105469 57.089844 " fill-opacity="1" fill-rule="evenodd"/></g><g clip-path="url(#bfa8ff652a)"><path fill="#226b20" d="M 241.042969 20.722656 C 240.8125 20.972656 240.664062 20.761719 240.371094 21.054688 C 240.308594 21.117188 240.058594 21.554688 240.039062 21.722656 C 239.996094 22.246094 240.121094 22.121094 239.742188 22.453125 C 239.429688 22.703125 239.410156 22.683594 238.988281 22.765625 C 238.695312 22.828125 238.738281 23.101562 238.507812 23.308594 C 238.171875 23.621094 238.296875 23.226562 238.066406 23.851562 C 237.921875 24.25 237.796875 24.0625 237.566406 24.375 C 237.480469 24.480469 237.4375 24.644531 237.375 24.730469 C 237.335938 24.769531 237.144531 24.917969 237.125 24.957031 L 237.039062 25.292969 C 237.292969 25.460938 237.355469 25.375 237.230469 25.753906 C 237.125 26.066406 237.292969 26.210938 237.207031 26.503906 C 237.167969 26.609375 237.019531 26.816406 236.9375 27.046875 C 236.851562 27.339844 236.769531 27.339844 236.539062 27.484375 L 236.746094 28.027344 C 236.683594 28.046875 236.808594 28.027344 236.707031 28.007812 C 236.578125 27.984375 236.808594 28.007812 236.601562 27.984375 L 236.558594 28.382812 C 236.808594 28.589844 236.664062 28.695312 237.105469 28.589844 C 237 28.800781 236.875 28.738281 237.039062 28.96875 L 237.0625 28.988281 C 237.0625 29.007812 237.082031 29.007812 237.082031 29.03125 L 237.230469 29.257812 C 237.375 29.507812 237.503906 29.46875 237.460938 29.800781 C 237.4375 30.011719 237.4375 30.113281 237.566406 30.261719 C 237.796875 30.46875 237.667969 30.261719 237.878906 30.59375 C 237.984375 30.761719 237.898438 30.65625 238.027344 30.761719 L 238.171875 30.929688 C 238.320312 31.160156 238.589844 31.347656 238.800781 31.554688 C 239.722656 31.261719 239.765625 31.261719 240.519531 31.640625 C 240.707031 31.554688 240.664062 31.535156 240.9375 31.515625 C 240.960938 31.515625 240.980469 31.515625 241 31.515625 C 241.421875 31.472656 241.566406 31.304688 241.839844 31.285156 C 242.742188 31.242188 242.65625 31.535156 242.65625 32.121094 L 242.804688 32.097656 C 243.035156 32.097656 242.992188 32.097656 243.160156 32.121094 L 243.433594 32.140625 C 243.621094 32.539062 243.640625 32.558594 243.285156 33.058594 C 243.265625 33.078125 243.242188 33.101562 243.222656 33.140625 C 243.074219 33.414062 243.097656 33.414062 242.84375 33.726562 L 242.742188 33.851562 C 242.742188 34.164062 242.761719 34.5625 242.886719 34.769531 L 242.675781 36.042969 C 242.550781 36.335938 242.550781 36.167969 242.445312 36.359375 C 242.300781 36.648438 242.382812 36.816406 242.175781 37.046875 C 242.007812 37.214844 241.796875 37.296875 241.609375 37.527344 C 241.316406 37.546875 241.460938 37.820312 241.085938 38.046875 C 240.8125 38.214844 240.980469 38.109375 240.832031 38.320312 C 240.707031 38.507812 240.625 38.464844 240.519531 38.613281 C 240.433594 38.738281 240.433594 38.945312 240.394531 39.175781 C 242.089844 39.03125 243.789062 38.78125 245.421875 38.363281 C 245.84375 37.921875 246.261719 37.464844 246.660156 37.003906 C 246.890625 36.566406 246.972656 36.609375 247.058594 36.398438 C 247.203125 36.042969 247.496094 35.730469 247.75 35.4375 C 247.851562 35.3125 247.980469 35.210938 248.019531 35.125 L 248.125 34.980469 C 249.070312 33.558594 249.863281 32.015625 250.453125 30.386719 C 250.472656 30.34375 250.472656 30.28125 250.492188 30.199219 C 250.492188 30.03125 250.535156 29.84375 250.515625 29.65625 C 250.453125 28.675781 250.578125 29.113281 250.597656 28.632812 C 250.621094 27.757812 250.640625 27.964844 250.722656 27.152344 L 250.683594 25.480469 C 250.621094 24.832031 250.660156 24.917969 250.535156 24.207031 L 250.535156 23.957031 C 250.535156 23.871094 250.554688 23.871094 250.554688 23.871094 C 250.640625 23.996094 250.597656 24.101562 250.621094 24.269531 C 250.703125 24.894531 250.828125 24.289062 250.933594 24.832031 C 250.953125 24.980469 250.953125 25.167969 250.953125 25.292969 C 250.976562 26.335938 251.144531 26.417969 251.015625 27.023438 C 250.890625 27.527344 251.101562 27.484375 250.851562 28.738281 C 250.828125 28.863281 250.765625 29.28125 250.703125 29.675781 C 251.4375 27.464844 251.835938 25.082031 251.835938 22.621094 C 251.835938 20.761719 251.605469 18.964844 251.183594 17.253906 C 250.453125 14.289062 249.152344 11.554688 247.371094 9.175781 C 247.078125 9.113281 247.226562 9.113281 247.035156 8.925781 C 247.078125 9.214844 247.203125 9.132812 247.328125 9.363281 C 247.121094 9.300781 247.078125 9.300781 246.972656 9.132812 C 246.867188 8.964844 246.660156 8.589844 246.535156 8.507812 C 246.367188 8.359375 246.429688 8.464844 246.28125 8.277344 C 246.554688 8.339844 246.765625 8.589844 246.890625 8.609375 C 246.890625 8.589844 246.890625 8.570312 246.910156 8.570312 C 246.597656 8.171875 246.28125 7.796875 245.945312 7.441406 C 245.800781 7.335938 245.570312 7.171875 245.421875 7.109375 C 244.921875 6.835938 245.421875 6.816406 244.773438 6.792969 C 244.667969 6.460938 244.816406 6.566406 244.480469 6.398438 C 244.1875 6.25 244.3125 6.375 244.039062 6.273438 C 244.125 6.523438 244.101562 6.335938 244.1875 6.542969 C 243.914062 6.480469 244.144531 6.253906 243.832031 6.210938 C 243.894531 6.355469 243.894531 6.355469 243.933594 6.542969 C 243.453125 6.355469 243.703125 6.378906 243.769531 6.730469 C 243.683594 6.667969 243.683594 6.628906 243.515625 6.628906 C 243.472656 6.898438 243.515625 6.984375 243.539062 7.148438 C 243.558594 7.296875 243.433594 7.210938 243.539062 7.484375 C 243.640625 7.816406 243.433594 7.546875 243.558594 7.984375 L 243.640625 8.507812 C 243.640625 8.527344 243.621094 8.570312 243.621094 8.589844 L 243.390625 9.175781 C 243.390625 9.175781 243.328125 9.238281 243.308594 9.238281 C 243.203125 9.300781 243.160156 9.238281 243.140625 9.238281 C 243.203125 9.40625 243.140625 9.257812 243.265625 9.40625 C 242.929688 9.425781 243.035156 9.59375 243.011719 9.675781 C 243.011719 9.675781 242.84375 9.800781 243.054688 10.113281 C 243.140625 10.238281 243.117188 10.238281 243.265625 10.21875 C 243.140625 10.40625 243.160156 10.136719 243.179688 10.449219 C 243.285156 10.449219 243.242188 10.46875 243.328125 10.425781 L 243.472656 10.34375 C 243.347656 10.574219 243.285156 10.636719 243.285156 10.824219 C 243.496094 10.804688 243.347656 10.824219 243.496094 10.78125 C 243.472656 11.054688 243.390625 11.035156 243.640625 11.261719 C 244.1875 11.722656 244.3125 11.199219 244.457031 10.886719 L 245.359375 12.308594 C 245.214844 12.535156 245.316406 12.410156 245.214844 12.433594 C 245.152344 12.433594 245.277344 12.371094 245.066406 12.472656 C 245.085938 12.640625 245.171875 12.722656 245.296875 12.847656 C 245.191406 12.910156 245.234375 12.785156 245.191406 12.910156 C 245.316406 13.039062 245.234375 13.039062 245.445312 12.953125 L 245.445312 12.496094 C 245.652344 12.785156 245.445312 12.765625 245.820312 12.746094 L 245.820312 12.496094 C 245.90625 12.496094 246.238281 12.640625 246.074219 12.097656 C 246.03125 11.910156 245.925781 11.679688 245.84375 11.511719 C 245.945312 11.410156 246.007812 11.410156 246.050781 11.242188 C 246.175781 10.675781 245.570312 10.992188 245.253906 9.820312 C 245.128906 9.363281 245.609375 9.46875 245.445312 9.070312 C 245.359375 8.863281 245.445312 9.070312 245.339844 8.902344 C 245.253906 8.757812 245.214844 8.652344 245.234375 8.507812 C 245.445312 8.464844 245.589844 8.570312 245.695312 8.695312 C 245.882812 8.945312 245.820312 9.277344 245.738281 9.46875 C 245.652344 9.71875 245.90625 10.007812 246.15625 10.425781 C 246.199219 10.511719 246.46875 11.074219 246.847656 11.011719 L 247.371094 10.867188 C 247.433594 10.992188 247.453125 11.054688 247.644531 11.09375 L 247.582031 11.199219 L 247.519531 11.347656 C 247.160156 11.324219 247.433594 11.136719 247.078125 11.285156 C 246.867188 11.367188 247.121094 11.304688 246.890625 11.386719 C 246.742188 11.429688 246.929688 11.285156 246.722656 11.410156 C 246.828125 11.640625 246.804688 11.492188 246.929688 11.554688 C 247.015625 11.597656 247.414062 11.953125 247.390625 12.285156 C 247.121094 12.265625 247.222656 12.054688 246.992188 11.972656 C 246.722656 12.371094 247.097656 12.703125 247.246094 13.101562 C 247.078125 13.203125 247.140625 13.078125 247.035156 13.164062 C 246.890625 13.289062 247.226562 13.183594 246.929688 13.328125 C 246.699219 13.183594 246.929688 13.246094 246.722656 13.101562 C 246.492188 13.101562 246.238281 13.246094 246.09375 13.414062 C 245.925781 13.328125 245.820312 13.203125 245.632812 13.121094 L 245.316406 13.265625 C 245.171875 12.953125 244.878906 12.953125 244.835938 12.640625 C 244.941406 12.722656 244.960938 12.765625 245.085938 12.828125 C 245.109375 12.515625 245.046875 12.660156 244.855469 12.472656 C 244.917969 12.285156 244.855469 12.390625 245.003906 12.265625 L 244.878906 12.097656 C 244.816406 11.972656 244.878906 12.121094 244.835938 11.953125 C 244.792969 11.804688 244.792969 11.765625 244.730469 11.617188 C 244.457031 11.742188 244.710938 11.785156 244.355469 11.847656 L 244.355469 11.992188 C 244.4375 11.972656 244.4375 11.929688 244.542969 11.972656 L 244.355469 12.097656 C 244.375 12.371094 244.5 12.515625 244.625 12.765625 L 244.710938 12.976562 C 244.753906 13.101562 244.792969 13.140625 244.753906 13.265625 C 244.691406 13.289062 244.691406 13.246094 244.5625 13.246094 L 244.4375 13.265625 C 243.640625 13.457031 244.125 13.621094 243.769531 13.996094 C 243.640625 14.125 243.539062 14.164062 243.304688 14.1875 L 243.285156 14.519531 C 242.992188 14.644531 242.949219 14.769531 242.867188 14.792969 C 242.46875 14.707031 242.867188 14.605469 242.40625 14.605469 C 242.488281 14.75 242.550781 14.8125 242.574219 15.019531 C 242.195312 14.980469 242.320312 14.957031 242.152344 14.894531 C 242.027344 14.855469 241.820312 14.894531 241.628906 14.917969 C 241.796875 15.398438 241.753906 15.25 242.21875 15.417969 C 242.65625 15.585938 242.257812 15.773438 242.761719 15.980469 C 242.867188 16.398438 242.804688 16.710938 242.78125 17.171875 C 242.238281 17.191406 241.671875 16.964844 241.316406 16.921875 C 240.898438 16.878906 241.105469 16.691406 240.769531 16.816406 L 240.414062 16.941406 C 240.414062 16.984375 240.6875 17.378906 240.5625 18.046875 C 240.539062 18.214844 240.539062 18.320312 240.4375 18.363281 C 240.246094 18.800781 240.457031 18.757812 240.519531 18.96875 C 240.542969 19.113281 240.476562 19.300781 240.457031 19.40625 C 240.5 19.40625 240.730469 19.46875 240.75 19.46875 C 240.980469 19.507812 240.960938 19.445312 241.085938 19.488281 C 241.316406 19.550781 241.253906 19.78125 241.421875 19.949219 C 241.566406 20.03125 241.609375 19.925781 241.859375 19.824219 C 242.320312 19.65625 242.386719 20.054688 242.71875 19.71875 C 242.910156 19.550781 242.804688 19.65625 242.929688 19.574219 C 243.011719 19.511719 243.035156 19.449219 243.117188 19.363281 C 243.179688 19.28125 243.222656 19.257812 243.308594 19.175781 C 243.203125 19.007812 243.097656 18.882812 243.246094 18.695312 L 243.539062 18.257812 C 243.808594 18.214844 243.789062 18.300781 244 18.109375 C 244.335938 17.796875 243.808594 17.589844 244.1875 17.441406 C 244.480469 17.316406 244.730469 17.652344 244.898438 17.632812 L 245.359375 17.339844 C 245.488281 17.214844 245.257812 17.339844 245.488281 17.171875 C 245.84375 17.296875 245.90625 17.632812 246.03125 17.882812 C 246.15625 18.175781 246.136719 18.050781 246.324219 18.238281 C 246.449219 18.382812 246.429688 18.507812 246.597656 18.613281 C 246.785156 18.738281 246.660156 18.570312 246.933594 18.863281 L 247.226562 19.21875 C 247.664062 19.78125 247.265625 19.824219 247.414062 20.074219 C 247.539062 19.988281 247.519531 19.949219 247.582031 19.824219 C 247.582031 19.824219 247.582031 19.800781 247.582031 19.78125 L 247.6875 19.59375 C 247.5625 19.386719 247.519531 19.449219 247.582031 19.132812 C 247.832031 19.21875 247.6875 19.324219 247.9375 19.40625 C 248.023438 19.195312 247.8125 19.03125 247.707031 18.925781 C 247.5 18.738281 247.308594 18.757812 247.394531 18.507812 C 246.847656 18.402344 246.871094 17.984375 246.765625 17.796875 C 246.511719 17.378906 246.429688 17.609375 246.34375 17.214844 L 246.304688 16.898438 C 246.535156 16.816406 246.304688 16.859375 246.554688 16.835938 L 246.679688 17.191406 C 246.828125 17.128906 246.660156 17.191406 246.828125 16.984375 L 247.035156 17.527344 C 247.164062 17.757812 247.289062 17.796875 247.457031 17.964844 C 247.539062 18.046875 247.496094 18.007812 247.582031 18.109375 C 247.75 18.320312 248.042969 18.339844 248.085938 18.695312 C 248.125 18.925781 248.042969 18.988281 248.105469 19.21875 C 248.148438 19.34375 248.253906 19.40625 248.316406 19.53125 C 248.421875 19.78125 248.355469 19.96875 248.671875 20.117188 C 248.566406 20.261719 248.523438 20.28125 248.648438 20.617188 C 248.753906 20.804688 248.902344 20.867188 249.027344 20.910156 C 249.046875 20.804688 249.027344 20.449219 248.921875 20.324219 L 248.902344 20.304688 C 248.878906 20.28125 248.878906 20.28125 248.859375 20.28125 C 248.859375 20.261719 248.839844 20.261719 248.839844 20.242188 C 248.777344 20.179688 248.796875 20.242188 248.777344 20.15625 C 248.921875 20.179688 249.027344 20.28125 249.109375 20.449219 C 249.382812 20.15625 249.070312 19.988281 249.007812 19.925781 C 248.796875 19.699219 249.046875 19.988281 248.921875 19.699219 C 248.839844 19.488281 248.777344 19.59375 248.796875 19.363281 C 248.964844 19.46875 248.839844 19.46875 249.046875 19.53125 C 249.238281 19.28125 248.859375 19.363281 249.152344 19.195312 C 249.300781 19.113281 249.34375 19.257812 249.550781 19.363281 C 249.675781 19.300781 249.867188 19.070312 249.96875 19.300781 C 250.054688 19.550781 249.699219 19.445312 249.46875 19.425781 L 249.574219 19.84375 C 249.675781 20.074219 249.675781 20.117188 249.550781 20.28125 C 249.675781 20.429688 249.675781 20.324219 249.738281 20.511719 C 249.738281 20.554688 249.804688 20.867188 249.804688 20.929688 C 250.304688 21.136719 249.84375 21.097656 250.242188 21.242188 C 250.304688 21.136719 250.242188 21.117188 250.347656 20.972656 C 250.429688 21.011719 250.410156 20.992188 250.453125 21.011719 L 250.640625 21.347656 C 250.640625 21.324219 250.664062 21.347656 250.664062 21.367188 C 250.996094 21.160156 250.535156 21.074219 251.082031 21.136719 C 250.976562 21.578125 251.058594 21.890625 250.996094 22.371094 C 250.957031 22.558594 250.933594 22.746094 250.914062 22.914062 C 250.851562 23.203125 250.851562 23.203125 250.664062 23.289062 C 250.328125 23.183594 250.664062 23.265625 250.515625 23.140625 C 250.496094 23.121094 250.496094 23.058594 250.367188 23.078125 C 250.179688 23.140625 250.304688 23.203125 250.074219 23.332031 C 249.804688 23.164062 249.949219 23.121094 249.675781 22.996094 C 249.511719 22.890625 249.65625 23.078125 249.320312 22.789062 C 249.152344 22.640625 249.175781 22.746094 249.027344 22.558594 C 248.902344 22.371094 249.132812 22.558594 248.921875 22.390625 C 248.859375 22.347656 248.820312 22.328125 248.734375 22.328125 C 248.566406 22.308594 248.441406 22.390625 248.359375 22.472656 C 248.191406 22.890625 248.503906 22.871094 248.148438 23.207031 C 247.855469 23.140625 248 22.976562 247.601562 22.828125 C 247.226562 22.664062 247.308594 22.664062 247.289062 22.285156 C 247.101562 22.203125 247.226562 22.246094 247.101562 22.183594 C 246.617188 21.910156 246.828125 22.121094 246.597656 22.015625 C 246.492188 21.953125 246.429688 21.828125 246.15625 21.640625 C 245.78125 21.367188 246.117188 21.347656 246.242188 21.074219 C 246.324219 20.847656 246.21875 20.847656 246.09375 20.65625 L 246.261719 20.34375 C 246.074219 20.238281 246.242188 20.40625 246.09375 20.304688 C 246.011719 20.21875 246.09375 20.261719 245.96875 20.136719 C 245.65625 20.136719 245.78125 20.21875 245.550781 20.199219 C 245.402344 20.199219 245.382812 20.136719 245.109375 20.136719 C 244.921875 20.113281 244.796875 20.175781 244.667969 20.136719 C 244.292969 20.050781 243.8125 19.96875 243.328125 20.15625 C 242.363281 20.574219 242.804688 20.574219 242.28125 20.40625 C 242.132812 20.367188 242.09375 20.367188 241.964844 20.34375 C 241.527344 20.304688 241.734375 20.179688 241.527344 20.011719 L 241.378906 20.179688 C 241.339844 20.242188 241.339844 20.28125 241.296875 20.367188 C 241.210938 20.511719 241.148438 20.574219 241.042969 20.722656 Z M 236.246094 3.644531 L 235.972656 3.414062 C 235.972656 3.433594 235.699219 3.644531 236.246094 3.644531 Z M 240.414062 10.867188 L 240.5 11.011719 C 240.664062 10.929688 240.5625 11.011719 240.6875 10.886719 L 240.6875 10.699219 Z M 246.261719 12.015625 C 246.324219 12.222656 246.324219 12.160156 246.46875 12.203125 L 246.386719 11.785156 C 246.261719 11.828125 246.21875 11.804688 246.261719 12.015625 Z M 235.617188 4.519531 C 235.617188 4.394531 235.785156 4.1875 235.132812 4.164062 C 235.195312 4.375 235.386719 4.457031 235.617188 4.519531 Z M 218.851562 23.644531 C 218.980469 23.789062 219.167969 23.789062 219.355469 23.726562 C 219.480469 23.6875 219.417969 23.6875 219.460938 23.644531 C 219.3125 23.496094 219.105469 23.476562 219 23.519531 C 218.707031 23.621094 218.957031 23.539062 218.851562 23.644531 Z M 245.507812 17.921875 C 245.527344 18.175781 245.507812 18.339844 245.695312 18.445312 C 245.777344 18.363281 245.777344 18.363281 245.777344 18.152344 L 245.757812 17.902344 C 245.714844 17.820312 245.714844 17.839844 245.695312 17.796875 C 245.589844 17.921875 245.695312 17.859375 245.507812 17.921875 Z M 215.355469 23.269531 C 215.542969 23.289062 215.730469 23.332031 215.855469 23.269531 L 215.585938 23.015625 C 215.457031 22.953125 215.269531 22.976562 215.101562 22.953125 C 215.207031 23.183594 215.082031 22.953125 215.226562 23.101562 C 215.269531 23.144531 215.3125 23.207031 215.355469 23.269531 Z M 223.105469 12.035156 L 223.359375 11.929688 C 223.234375 11.703125 222.8125 11.554688 222.5625 11.535156 C 222.6875 11.722656 222.5625 11.492188 222.730469 11.679688 Z M 228.996094 4.4375 C 228.722656 4.332031 228.804688 4.164062 228.386719 4.207031 C 228.242188 4.644531 228.535156 4.667969 228.972656 4.582031 L 228.996094 4.4375 L 229.371094 4.4375 C 229.351562 4.476562 229.265625 4.644531 229.246094 4.667969 L 229.121094 4.792969 L 229.097656 4.8125 C 229.015625 4.894531 228.953125 5.0625 228.996094 5.207031 C 228.867188 5.125 228.867188 5.144531 228.742188 5.082031 C 228.953125 4.917969 228.847656 5.105469 228.933594 4.894531 L 228.597656 4.894531 C 228.554688 5.042969 228.679688 4.917969 228.175781 5.269531 C 228.21875 5.542969 228.113281 5.375 228.28125 5.5 C 228.199219 5.5625 228.113281 5.542969 228.074219 5.6875 C 228.199219 5.941406 228.261719 6.128906 228.242188 6.503906 C 228.324219 6.460938 228.472656 6.355469 228.679688 6.460938 C 228.367188 6.628906 228.367188 6.441406 228.28125 6.835938 C 228.492188 7.066406 228.429688 6.816406 228.492188 7.089844 L 228.617188 7.503906 C 228.617188 7.527344 228.636719 7.527344 228.636719 7.546875 L 228.699219 7.632812 C 228.847656 7.859375 228.847656 7.796875 228.867188 8.089844 C 229.097656 8.070312 228.996094 8.027344 229.183594 8.046875 C 229.351562 8.046875 229.289062 8.046875 229.539062 8.046875 C 229.621094 8.277344 229.726562 8.257812 229.769531 8.507812 C 230.125 8.464844 229.917969 8.464844 230.316406 8.488281 C 230.378906 8.238281 230.398438 8.382812 230.585938 8.046875 C 230.691406 7.859375 230.691406 7.695312 230.628906 7.484375 L 230.964844 7.503906 L 231.070312 7.316406 C 231.109375 7.277344 231.195312 7.234375 231.277344 7.152344 C 231.238281 6.921875 231.300781 7.109375 231.132812 6.941406 C 231.339844 6.816406 231.320312 7.066406 231.277344 6.671875 C 231.78125 6.816406 231.277344 6.398438 231.96875 6.546875 C 232.074219 6.398438 231.96875 6.398438 232.179688 6.292969 L 232.03125 6.609375 C 232.621094 6.398438 232.933594 6.503906 233.183594 6.128906 C 233.332031 5.941406 233.183594 6.042969 233.394531 5.941406 C 233.8125 5.730469 233.414062 5.960938 233.5625 5.667969 C 233.773438 5.792969 233.6875 5.941406 234.085938 5.855469 C 234.859375 5.648438 234.796875 5.941406 235.238281 5.605469 C 235.386719 5.5 235.550781 5.480469 235.761719 5.398438 L 235.21875 5.1875 C 234.882812 5.082031 234.734375 5.25 234.527344 5.1875 C 234.671875 5.105469 234.902344 5.082031 235.050781 4.957031 C 234.945312 4.875 234.945312 4.894531 234.757812 4.917969 L 234.503906 4.917969 C 234.484375 4.917969 234.464844 4.917969 234.464844 4.917969 L 234.628906 4.894531 C 234.734375 4.875 234.796875 4.875 234.882812 4.855469 C 234.882812 4.605469 234.777344 4.832031 234.859375 4.644531 L 235.070312 4.792969 C 235.238281 4.894531 235.175781 4.832031 235.300781 5 C 235.46875 5.210938 235.679688 5.210938 235.929688 5.230469 C 235.867188 5.0625 235.78125 4.8125 235.636719 4.6875 C 235.617188 4.667969 235.617188 4.667969 235.59375 4.644531 C 235.089844 4.207031 235.300781 4.769531 234.925781 4 L 235.09375 3.914062 C 235.324219 4.039062 235.449219 4.25 235.824219 4.0625 C 235.71875 3.789062 235.65625 4 235.511719 3.769531 C 235.71875 3.851562 235.679688 3.851562 235.972656 3.808594 L 235.847656 3.664062 L 235.824219 3.644531 C 235.71875 3.539062 235.742188 3.539062 235.636719 3.457031 L 235.761719 3.457031 C 235.761719 3.433594 235.785156 3.433594 235.804688 3.433594 L 235.824219 3.433594 C 235.574219 2.828125 235.488281 3.226562 235.132812 2.851562 L 235.617188 2.871094 C 235.742188 2.851562 235.65625 2.890625 235.71875 2.851562 C 235.574219 2.558594 235.324219 2.746094 235.34375 2.578125 C 235.34375 2.558594 235.363281 2.515625 235.363281 2.496094 C 235.238281 2.453125 235.195312 2.453125 235.050781 2.535156 C 235.070312 2.371094 235.070312 2.304688 235.007812 2.203125 C 235.324219 2.035156 234.988281 2.304688 235.261719 1.828125 C 235.238281 1.828125 235.070312 1.828125 235.070312 1.828125 L 235.28125 1.765625 C 235.21875 1.636719 235.34375 1.765625 235.21875 1.679688 C 235.21875 1.679688 235.195312 1.660156 235.175781 1.660156 L 235.425781 1.574219 C 235.425781 1.304688 235.175781 1.285156 234.925781 1.304688 C 234.359375 1.324219 234.632812 1.347656 234.378906 1.472656 L 234.421875 1.136719 C 234.085938 1.09375 234.234375 1.136719 234.003906 1.222656 L 233.980469 1.074219 C 233.773438 1.074219 233.351562 1.136719 233.226562 1.03125 C 233.4375 0.90625 234.003906 1.15625 234.296875 0.992188 C 233.941406 0.90625 234.003906 0.929688 233.730469 0.78125 C 233.457031 0.636719 232.914062 0.53125 232.578125 0.617188 C 232.453125 0.636719 232.199219 0.574219 231.699219 0.617188 C 231.761719 0.679688 231.800781 0.699219 231.84375 0.804688 C 231.65625 0.699219 231.613281 0.617188 231.339844 0.59375 L 231.277344 0.761719 C 230.902344 0.40625 230.542969 0.636719 230 0.554688 L 230.25 0.46875 C 230.0625 0.21875 230.105469 0.261719 229.308594 0.175781 C 229.160156 0.15625 229.183594 0.15625 229.058594 0.15625 C 228.953125 0.15625 229.035156 0.15625 228.953125 0.15625 C 228.574219 0.09375 227.128906 0.03125 226.816406 0.304688 C 226.648438 0.46875 226.898438 0.449219 226.457031 0.617188 C 226.519531 0.46875 226.542969 0.492188 226.648438 0.34375 C 226.667969 0.34375 226.710938 0.304688 226.730469 0.261719 C 226.523438 0.136719 226.039062 0.28125 225.808594 0.367188 L 225.035156 0.78125 L 225.011719 0.867188 C 225.136719 0.886719 225.285156 0.90625 225.347656 0.90625 C 225.578125 0.867188 225.222656 0.78125 226.355469 0.761719 C 226.25 1.035156 226.292969 0.824219 225.914062 0.84375 C 225.496094 0.867188 225.621094 0.90625 225.433594 1.117188 C 225.410156 1.117188 225.410156 1.097656 225.410156 1.097656 C 225.328125 1.261719 225.347656 1.074219 225.347656 1.054688 C 225.265625 1.035156 225.472656 0.992188 225.203125 1.035156 C 225.011719 1.054688 225.117188 1.054688 225.074219 1.074219 L 224.992188 1.160156 C 224.78125 1.285156 224.59375 1.199219 224.363281 1.199219 C 224.40625 1.347656 224.382812 1.222656 224.488281 1.429688 C 224.679688 1.367188 224.59375 1.429688 224.886719 1.429688 C 225.035156 1.449219 225.160156 1.449219 225.347656 1.429688 L 225.347656 1.617188 C 225.515625 1.597656 225.976562 1.597656 226.039062 1.449219 L 226.0625 1.386719 C 226.082031 1.386719 226.082031 1.367188 226.082031 1.367188 C 226.082031 1.347656 226.082031 1.324219 226.101562 1.324219 C 226.1875 1.304688 226.226562 1.324219 226.269531 1.304688 L 226.394531 1.261719 C 226.816406 1.117188 226.523438 1.242188 226.792969 1.222656 C 227.003906 1.199219 226.773438 1.242188 226.941406 1.179688 C 227.464844 1.011719 227.253906 1.179688 227.277344 0.824219 C 227.695312 1.117188 228.953125 0.554688 230 0.554688 C 229.917969 0.867188 229.8125 0.65625 229.433594 0.679688 C 229.246094 0.699219 228.972656 0.761719 228.828125 0.804688 C 228.765625 0.949219 228.828125 0.824219 228.910156 1.054688 L 227.316406 1.199219 C 227.484375 1.703125 227.675781 1.410156 228.007812 1.515625 C 227.777344 1.660156 227.171875 1.515625 227.109375 1.515625 C 227.148438 1.679688 227.085938 1.535156 227.191406 1.640625 C 227.191406 1.660156 227.253906 1.679688 227.316406 1.742188 C 227.085938 1.867188 227.171875 1.679688 227.171875 1.929688 L 228.09375 1.972656 C 228.40625 1.972656 228.761719 2.246094 228.785156 2.371094 C 228.804688 2.390625 228.804688 2.390625 228.804688 2.410156 L 228.867188 2.683594 C 228.929688 3.664062 228.636719 3.433594 228.449219 3.683594 C 228.761719 3.914062 228.785156 3.808594 229.035156 3.707031 C 229.097656 3.746094 229.078125 3.601562 229.097656 3.851562 C 229.160156 4.144531 229.289062 4.019531 229.328125 4.207031 C 229.015625 4.269531 229.246094 4.226562 229.140625 4.164062 C 229.097656 4.144531 228.972656 3.976562 228.597656 4.0625 C 228.703125 4.351562 228.867188 4.125 228.996094 4.4375 Z M 247.289062 20.597656 C 247.265625 20.324219 247.203125 20.21875 247.308594 19.992188 C 247.121094 19.949219 247.078125 19.992188 246.929688 19.96875 C 246.804688 19.949219 246.910156 19.929688 246.722656 19.886719 C 246.636719 19.925781 246.617188 19.949219 246.574219 20.03125 C 246.660156 20.179688 247.015625 20.511719 247.289062 20.597656 Z M 245.445312 18.652344 L 245.546875 19.46875 C 245.738281 19.46875 245.695312 19.425781 245.90625 19.363281 C 245.90625 18.800781 245.988281 18.757812 245.757812 18.488281 Z M 217.972656 22.914062 C 217.699219 22.871094 217.804688 22.808594 217.386719 22.789062 C 217.113281 22.765625 217.15625 22.703125 216.839844 22.683594 C 217.070312 23.058594 216.902344 22.664062 217.070312 23.207031 C 216.777344 23.207031 216.570312 23.039062 216.378906 23.121094 C 216.421875 23.207031 216.484375 23.269531 216.546875 23.351562 C 216.757812 23.308594 216.757812 23.269531 217.03125 23.308594 C 217.429688 23.371094 217.175781 23.414062 217.40625 23.558594 C 217.699219 23.496094 217.46875 23.496094 217.636719 23.457031 C 217.972656 23.351562 218.308594 23.496094 218.496094 23.371094 C 218.414062 23.183594 218.371094 23.269531 218.203125 23.144531 Z M 223.441406 1.515625 L 223.378906 1.597656 C 223.210938 1.804688 223.253906 1.679688 223.234375 1.828125 L 224.742188 2.054688 L 225.179688 1.847656 C 225.035156 1.429688 224.65625 1.804688 224.027344 1.535156 C 224.027344 1.535156 224.007812 1.515625 223.988281 1.515625 C 224.070312 1.367188 223.988281 1.492188 224.113281 1.410156 L 224.257812 1.242188 L 224.132812 1.179688 C 223.859375 1.011719 224.09375 1.054688 223.859375 1.054688 C 223.796875 1.074219 223.671875 1.054688 223.628906 1.160156 C 223.566406 1.324219 223.671875 1.179688 223.757812 1.410156 C 223.609375 1.472656 223.527344 1.515625 223.441406 1.515625 Z M 238.589844 2.515625 L 238.84375 2.640625 C 239.074219 2.808594 239.199219 3.101562 239.617188 2.953125 C 239.742188 3.203125 239.410156 3.039062 239.722656 3.203125 C 239.953125 3.308594 239.828125 3.226562 239.976562 3.394531 L 240.601562 3.769531 C 240.476562 3.394531 240.4375 3.519531 240.289062 3.332031 C 240.246094 3.289062 240.207031 3.203125 240.164062 3.121094 C 240.898438 3.457031 240.308594 3.433594 240.875 3.558594 C 240.917969 3.289062 240.625 3.269531 240.371094 3.140625 C 240.183594 3.058594 240.289062 3.183594 240.226562 2.976562 C 240.058594 3.039062 240.183594 3.015625 240.140625 3.039062 L 240.058594 3.101562 L 240.039062 3.101562 C 239.953125 2.953125 240.140625 2.890625 239.578125 2.722656 C 239.660156 2.660156 239.347656 2.640625 239.746094 2.703125 C 239.933594 2.722656 239.703125 2.765625 239.976562 2.789062 L 239.976562 2.765625 C 239.679688 2.621094 239.386719 2.453125 239.074219 2.308594 C 239.03125 2.347656 239.011719 2.390625 238.96875 2.472656 Z M 216.441406 22.371094 C 216.402344 22.265625 216.296875 22.265625 215.960938 22.035156 C 215.5625 21.742188 215.710938 21.765625 215.480469 21.679688 C 215.1875 21.390625 215.332031 21.554688 215.125 21.429688 C 214.871094 21.265625 215.226562 21.347656 214.808594 21.179688 C 214.367188 20.992188 213.550781 20.804688 213.46875 21.429688 C 213.824219 21.492188 213.972656 21.074219 214.304688 21.242188 C 214.367188 21.492188 214.265625 20.992188 214.285156 21.347656 C 214.285156 21.472656 214.410156 21.492188 214.558594 21.554688 C 214.578125 21.554688 214.597656 21.578125 214.597656 21.578125 L 214.808594 21.679688 C 214.996094 21.765625 214.996094 21.722656 215.207031 21.742188 C 215.269531 22.183594 215.332031 22.058594 215.625 22.203125 C 215.519531 22.476562 215.519531 22.222656 215.417969 22.476562 C 215.625 22.539062 215.835938 22.515625 216.023438 22.578125 C 216.109375 22.601562 216.148438 22.703125 216.507812 22.558594 L 216.589844 22.539062 C 216.527344 22.371094 216.589844 22.453125 216.441406 22.371094 Z M 241.167969 12.976562 L 241.042969 12.789062 C 241.023438 12.765625 240.980469 12.664062 240.960938 12.640625 C 241.085938 12.578125 241.167969 12.601562 241.167969 12.433594 C 241.167969 12.015625 240.433594 12.015625 240.414062 12.015625 L 240.289062 12.035156 C 240.269531 12.410156 240.414062 12.097656 240.308594 12.308594 C 240.226562 12.433594 240.121094 12.328125 240.039062 12.308594 C 239.703125 12.246094 240.039062 12.203125 239.910156 12.703125 L 240.183594 12.808594 C 239.765625 13.414062 239.933594 13.601562 240.667969 13.414062 C 241.253906 13.269531 240.960938 13.519531 241.167969 12.976562 Z M 225.242188 11.304688 C 225.078125 11.515625 224.699219 11.804688 224.574219 11.972656 C 224.363281 12.246094 224.59375 12.054688 224.28125 12.246094 C 224.132812 12.328125 223.988281 12.453125 223.945312 12.640625 C 224.28125 12.871094 224.949219 12.703125 225.160156 12.871094 C 225.246094 12.933594 225.179688 12.914062 225.246094 12.976562 L 224.949219 13.101562 C 225.179688 13.351562 225.308594 12.953125 225.683594 12.890625 C 225.683594 13.015625 225.621094 13.058594 225.578125 13.226562 C 225.664062 13.269531 225.539062 13.226562 225.664062 13.226562 C 225.894531 13.246094 225.601562 13.308594 225.9375 13.371094 L 226.167969 12.953125 C 226.039062 12.914062 226.144531 12.890625 226.019531 12.976562 C 226.0625 12.851562 226.0625 12.933594 226.105469 12.746094 L 225.808594 12.933594 C 226 12.539062 225.976562 12.789062 226.105469 12.578125 C 225.957031 12.515625 226.082031 12.621094 225.875 12.515625 C 225.9375 12.410156 226 12.433594 226.039062 12.371094 C 226.125 12.246094 226.105469 12.265625 225.957031 12.203125 C 225.683594 12.078125 225.558594 12.160156 225.433594 12.285156 C 225.414062 12.246094 225.390625 12.160156 225.371094 12.140625 L 225.347656 12.078125 C 225.328125 12.015625 225.347656 11.953125 225.285156 11.890625 C 225.140625 11.765625 225.265625 12.015625 225.054688 11.890625 C 225.160156 11.742188 225.246094 11.765625 225.601562 11.304688 L 225.242188 11.304688 L 225.515625 11.199219 C 225.832031 11.054688 225.515625 11.179688 225.726562 10.722656 C 225.789062 10.574219 225.746094 10.617188 225.769531 10.449219 C 225.347656 10.304688 225.539062 10.367188 225.328125 10.242188 C 225.222656 10.179688 225.308594 10.199219 225.179688 10.179688 C 224.929688 10.136719 224.761719 10.28125 224.53125 10.28125 C 225.160156 9.988281 225.203125 10.15625 225.371094 10.03125 C 225.265625 9.949219 225.140625 9.90625 225.011719 9.824219 C 224.46875 9.488281 224.78125 9.863281 224.46875 9.40625 C 224.257812 9.132812 224.175781 9.195312 224.425781 8.945312 C 224.53125 8.820312 224.425781 8.96875 224.511719 8.863281 C 224.21875 8.339844 224.53125 9.09375 224.34375 8.277344 C 224.28125 8.046875 224.257812 7.671875 224.113281 7.484375 C 223.925781 7.609375 223.820312 7.757812 223.589844 7.945312 C 223.359375 8.152344 223.546875 8.046875 223.316406 8.089844 C 223.234375 8.109375 223.066406 8.152344 222.9375 8.195312 C 222.730469 7.921875 222.917969 7.777344 222.4375 7.882812 C 222.476562 7.714844 222.457031 7.921875 222.625 7.628906 L 222.835938 7.253906 C 222.9375 7.085938 222.898438 7.234375 222.980469 7.046875 C 222.960938 7.023438 222.644531 6.921875 222.519531 6.878906 L 222.246094 6.316406 C 221.472656 6.460938 221.515625 6.023438 221.074219 6.253906 C 220.96875 6.523438 221.136719 6.398438 220.925781 6.628906 C 220.675781 6.878906 220.824219 6.648438 220.695312 7.003906 C 220.59375 7.339844 220.363281 7.339844 220.109375 7.527344 C 220.152344 7.753906 220.320312 7.753906 220.277344 8.109375 C 220.214844 8.632812 219.523438 8.945312 218.9375 9.007812 C 218.914062 9.28125 218.832031 9.988281 218.582031 10.136719 L 218.140625 10.34375 C 218.015625 10.15625 217.828125 9.800781 217.953125 9.507812 L 218.371094 8.800781 C 218.121094 8.652344 218.078125 8.652344 217.722656 8.632812 C 217.449219 8.109375 217.660156 8.507812 217.40625 8.257812 C 217.238281 8.089844 217.367188 7.964844 217.09375 7.839844 C 216.882812 7.628906 216.925781 7.671875 216.609375 7.734375 C 216.988281 6.898438 216.820312 7.171875 216.757812 7.003906 C 216.671875 6.816406 216.945312 6.566406 217.070312 6.460938 L 217.199219 6.378906 C 217.636719 6.085938 217.992188 5.730469 218.453125 5.605469 C 218.621094 5.5625 218.539062 5.605469 218.707031 5.523438 C 218.726562 5.332031 218.707031 5.332031 218.601562 5.25 C 218.75 5.332031 218.707031 5.394531 218.894531 5.394531 C 219.144531 5.394531 219 5.332031 219.3125 5.292969 C 219.773438 5.25 219.734375 5.125 220.066406 4.980469 L 219.878906 4.832031 C 220.152344 4.832031 220.132812 4.917969 220.382812 4.769531 C 220.695312 4.5625 220.445312 4.539062 220.695312 4.5 C 220.84375 4.664062 220.78125 4.664062 220.863281 4.851562 L 220.925781 4.8125 C 220.925781 4.789062 220.925781 4.8125 220.988281 4.726562 L 221.03125 4.644531 C 221.054688 4.601562 221.03125 4.707031 221.074219 4.519531 C 221.261719 4.625 221.117188 4.601562 221.324219 4.582031 C 221.410156 4.582031 221.847656 4.4375 221.953125 4.269531 C 221.976562 4.144531 221.996094 4.144531 222.039062 3.996094 L 222.414062 3.808594 C 222.519531 3.746094 222.394531 3.789062 222.519531 3.746094 C 222.5 3.703125 222.476562 3.664062 222.457031 3.640625 C 222.351562 3.433594 222.414062 3.351562 221.871094 3.414062 C 221.703125 3.683594 221.890625 3.621094 221.347656 3.851562 C 221.21875 3.890625 221.347656 3.851562 221.242188 3.871094 C 221.21875 3.871094 221.21875 3.871094 221.199219 3.871094 C 220.71875 3.957031 221.21875 4.039062 220.738281 4.144531 C 220.886719 3.703125 221.199219 4.019531 221.179688 3.476562 C 221.03125 3.539062 220.988281 3.640625 220.65625 3.726562 C 220.71875 3.601562 220.925781 3.476562 221.054688 3.351562 C 220.925781 3.203125 221.03125 3.328125 220.863281 3.265625 C 220.886719 3.265625 220.90625 3.246094 220.90625 3.246094 C 220.90625 3.246094 220.925781 3.226562 220.949219 3.226562 C 221.28125 3.078125 221.09375 3.121094 221.28125 2.933594 C 221.535156 2.660156 221.429688 2.890625 221.578125 2.472656 C 221.910156 2.515625 221.765625 2.472656 221.996094 2.367188 C 222.164062 2.285156 222.078125 2.367188 222.289062 2.304688 C 222.414062 2.265625 222.875 2.097656 222.980469 2.035156 L 222.75 1.847656 C 222.226562 1.847656 221.722656 2.347656 220.988281 2.703125 C 220.757812 2.808594 220.589844 2.890625 220.382812 3.015625 C 220.339844 3.308594 220.570312 3.121094 220.214844 3.539062 C 220.027344 3.746094 219.941406 3.640625 219.691406 3.789062 C 219.5 3.894531 219.566406 3.914062 219.375 3.976562 C 219.398438 3.726562 219.4375 3.933594 219.691406 3.683594 L 219.523438 3.539062 C 219.039062 3.640625 219.230469 3.976562 218.539062 3.558594 C 218.644531 3.203125 218.601562 3.539062 218.726562 3.265625 C 218.371094 3.351562 218.371094 3.226562 218.140625 3.476562 C 218.140625 3.496094 218.140625 3.496094 218.117188 3.515625 L 217.953125 3.664062 C 217.886719 3.746094 217.804688 3.789062 217.722656 3.851562 C 217.804688 3.726562 217.847656 3.683594 217.847656 3.496094 L 217.449219 3.539062 C 217.636719 3.203125 217.847656 3.515625 217.824219 3.078125 C 216.210938 4.019531 214.703125 5.167969 213.363281 6.460938 C 213.339844 6.480469 213.320312 6.503906 213.300781 6.523438 L 213.277344 6.542969 C 213.238281 6.585938 213.195312 6.628906 213.132812 6.691406 C 213.089844 6.730469 213.046875 6.773438 213.007812 6.816406 C 211.140625 8.695312 209.613281 10.90625 208.5 13.371094 C 208.355469 14.019531 207.851562 15.25 207.914062 15.542969 C 207.933594 15.730469 208.0625 15.835938 208.039062 16.167969 C 208.019531 16.480469 207.976562 16.605469 207.914062 16.859375 C 207.832031 17.296875 207.933594 17.816406 207.894531 18.070312 C 207.832031 18.402344 207.832031 18.070312 207.746094 18.320312 C 207.832031 18.464844 207.832031 18.570312 207.894531 18.738281 C 208.144531 19.363281 207.789062 18.800781 208.039062 19.699219 C 208.101562 19.863281 208.0625 20.113281 208.144531 20.21875 C 208.4375 19.96875 208.144531 19.824219 208.144531 19.445312 L 208.0625 17.609375 C 208.019531 17.339844 208.019531 16.941406 208.144531 16.734375 C 208.394531 16.898438 208.25 17.253906 208.25 17.796875 C 208.269531 18.214844 208.394531 18.570312 208.417969 18.863281 C 208.417969 19.195312 208.4375 19.425781 208.585938 19.757812 C 208.753906 20.09375 208.753906 20.386719 208.773438 20.78125 C 208.792969 21.136719 208.480469 21.367188 209.046875 22.078125 C 209.191406 22.285156 210.09375 23.183594 210.304688 23.246094 C 210.554688 23.328125 210.554688 23.183594 210.785156 23.121094 C 210.972656 23.289062 210.972656 23.226562 211.121094 23.519531 C 211.519531 24.289062 211.289062 23.851562 211.9375 24.289062 C 212.125 24.414062 212.230469 24.539062 212.484375 24.457031 C 212.441406 24.664062 212.417969 24.582031 212.566406 24.769531 C 212.945312 25.230469 212.859375 25.375 212.902344 25.5625 C 212.984375 25.9375 213.257812 25.6875 213.445312 26.128906 C 213.65625 26.628906 213.613281 26.210938 214.222656 26.753906 C 214.347656 26.878906 214.222656 26.835938 214.410156 26.878906 L 214.535156 26.816406 C 214.496094 26.648438 214.496094 26.796875 214.453125 26.566406 C 214.746094 26.398438 214.535156 26.398438 214.828125 26.316406 C 215.019531 26.503906 214.996094 26.398438 215.019531 26.605469 L 215.164062 26.984375 C 215.4375 27.359375 215.25 27.566406 215.332031 28.007812 C 215.375 28.214844 215.4375 28.171875 215.3125 28.382812 C 215.101562 28.675781 215.101562 28.464844 214.996094 28.652344 C 214.933594 28.777344 214.996094 28.839844 214.871094 28.964844 C 214.789062 29.070312 214.746094 29.007812 214.660156 29.175781 C 214.621094 29.28125 214.683594 29.238281 214.597656 29.382812 C 214.535156 29.59375 214.390625 30.03125 214.621094 30.175781 L 214.808594 30.238281 C 214.808594 30.238281 214.828125 30.238281 214.851562 30.238281 C 214.789062 30.59375 214.660156 30.34375 214.515625 30.636719 C 214.410156 30.804688 214.578125 30.929688 214.640625 31.074219 L 214.660156 31.179688 C 214.660156 31.261719 214.640625 31.199219 214.683594 31.285156 C 214.683594 31.285156 214.828125 31.429688 214.851562 31.449219 C 215.269531 31.765625 214.851562 31.472656 215.3125 32.054688 C 215.375 32.117188 215.394531 32.179688 215.457031 32.285156 L 216.277344 33.539062 C 216.546875 34.375 216.988281 34.457031 217.742188 35 C 218.121094 35.273438 217.890625 35.292969 218.289062 35.417969 C 218.351562 35.855469 218.582031 36.105469 218.582031 36.796875 C 218.601562 37.191406 218.726562 37.214844 218.75 37.421875 C 218.789062 37.882812 218.832031 37.671875 218.832031 38.109375 C 218.8125 38.675781 219.082031 38.988281 219.230469 39.425781 C 219.566406 40.367188 219.144531 40.386719 219.503906 40.742188 C 219.648438 40.90625 219.691406 41.035156 219.753906 41.160156 C 220.65625 40.90625 221.578125 40.679688 222.519531 40.492188 C 222.5 40.449219 222.457031 40.429688 222.332031 40.324219 C 222.308594 40.324219 222.308594 40.304688 222.289062 40.28125 C 222.5625 40.304688 222.5 40.34375 222.707031 40.429688 C 222.730469 40.429688 222.75 40.429688 222.773438 40.429688 C 222.960938 40.386719 223.148438 40.34375 223.335938 40.324219 C 223.484375 40.175781 223.589844 40.011719 223.589844 39.761719 C 223.695312 39.863281 223.671875 39.863281 223.796875 39.78125 C 224.15625 39.574219 223.945312 39.550781 224.113281 39.34375 C 224.238281 39.195312 224.34375 39.238281 224.40625 39.03125 C 224.511719 38.550781 224.175781 38.445312 224.699219 38.214844 L 224.992188 38.027344 C 225.832031 37.902344 225.242188 37.796875 225.726562 37.820312 C 225.914062 37.839844 226.332031 37.945312 226.542969 37.714844 C 226.710938 37.546875 226.460938 37.714844 226.773438 37.359375 L 227.089844 37.046875 C 227.089844 36.941406 227.066406 36.921875 227.109375 36.796875 L 227.152344 36.671875 C 227.171875 36.671875 227.171875 36.648438 227.171875 36.648438 C 227.527344 36.003906 227.359375 36.167969 227.445312 35.667969 C 227.464844 35.523438 227.527344 35.398438 227.570312 35.207031 L 227.632812 35.230469 C 227.882812 35.3125 227.96875 35.167969 228.09375 34.957031 C 228.21875 34.730469 228.09375 34.875 228.34375 34.730469 C 228.472656 34.667969 228.574219 34.605469 228.679688 34.519531 C 229.164062 34.144531 229.203125 33.746094 229.121094 33.140625 C 228.472656 32.871094 229.183594 33.476562 228.15625 32.621094 L 228.011719 32.472656 C 227.800781 32.371094 227.925781 32.222656 227.589844 32.160156 C 227.382812 32.097656 227.191406 32.140625 226.984375 32.078125 C 226.773438 31.992188 226.710938 31.890625 226.480469 31.890625 L 226.082031 31.953125 C 226.292969 31.535156 226.144531 31.554688 225.746094 31.386719 C 225.496094 31.285156 225.285156 31.117188 225.035156 31.097656 C 224.761719 31.304688 224.71875 31.578125 224.46875 31.324219 C 224.742188 31.285156 224.867188 31.199219 224.84375 30.90625 C 224.613281 30.867188 224.382812 30.824219 224.175781 30.78125 L 224.070312 31.074219 C 223.691406 31.035156 223.777344 31.261719 223.527344 31.136719 C 223.546875 31.136719 223.566406 31.136719 223.566406 31.136719 L 223.820312 30.929688 C 224.152344 30.46875 224.070312 30.90625 224.449219 30.304688 C 224.257812 29.949219 224.152344 30.386719 224.089844 29.53125 C 224.089844 29.382812 224.113281 29.445312 224.007812 29.34375 C 223.734375 29.050781 223.671875 28.964844 223.359375 28.820312 C 223.105469 28.714844 223.273438 28.652344 223 28.589844 L 222.792969 28.550781 C 222.5625 28.527344 222.6875 28.464844 222.5 28.488281 L 222.476562 28.488281 C 222.144531 28.527344 222.289062 28.425781 221.996094 28.488281 C 221.976562 28.234375 221.847656 28.109375 221.578125 28.089844 C 221.640625 27.691406 221.324219 27.652344 221.09375 27.359375 L 220.59375 27.359375 C 220.738281 27.234375 220.824219 27.214844 220.800781 26.984375 C 220.71875 26.941406 220.488281 26.835938 220.425781 26.816406 C 220.152344 26.710938 220.382812 26.773438 220.152344 26.648438 C 220.296875 26.609375 220.277344 26.648438 220.382812 26.566406 C 219.941406 26.273438 219.523438 26.585938 219.375 26.585938 C 218.875 26.585938 219.503906 26.335938 218.328125 26.355469 L 218.183594 25.9375 L 217.824219 25.917969 C 217.785156 25.773438 217.824219 25.75 217.699219 25.625 L 217.636719 25.898438 L 217.238281 25.980469 C 217.199219 26.355469 217.386719 26.378906 217.28125 26.609375 C 217.132812 26.609375 217.132812 26.585938 217.007812 26.417969 C 217.132812 26.042969 217.199219 26.292969 217.113281 25.835938 L 217.175781 25.773438 C 217.199219 25.773438 217.21875 25.773438 217.21875 25.75 C 217.40625 25.625 217.34375 25.667969 217.363281 25.5625 C 217.15625 25.230469 216.988281 25.605469 216.777344 25.6875 C 216.589844 25.75 216.570312 25.667969 216.359375 25.773438 C 216.359375 25.773438 216.335938 25.773438 216.316406 25.773438 C 216.109375 25.898438 216.191406 25.710938 216.023438 25.792969 C 215.8125 26.085938 215.980469 26.128906 215.792969 26.316406 C 215.730469 26.378906 215.542969 26.503906 215.414062 26.605469 C 215.164062 26.417969 215.164062 26.273438 214.933594 26.230469 L 214.722656 26.085938 C 213.84375 26.355469 213.96875 26.253906 213.800781 25.9375 C 213.738281 25.835938 213.613281 25.792969 213.550781 25.667969 C 213.40625 25.417969 213.53125 25.042969 213.550781 24.769531 C 213.59375 24.101562 213.613281 24.75 213.675781 23.957031 C 213.445312 23.851562 213.507812 23.914062 213.402344 23.621094 L 212.441406 23.515625 C 212.210938 23.496094 212.316406 23.601562 212.210938 23.414062 C 212.148438 23.265625 212.230469 23.390625 212.273438 23.289062 C 212.335938 23.140625 212.417969 22.660156 212.355469 22.472656 C 212.523438 22.390625 212.148438 22.515625 212.460938 22.515625 C 212.609375 22.492188 212.566406 22.304688 212.609375 22.078125 C 212.710938 21.617188 212.902344 21.910156 212.839844 21.410156 C 212.648438 21.304688 212.210938 21.386719 211.917969 21.429688 C 211.789062 22.453125 211.625 21.953125 211.558594 22.367188 C 211.539062 22.367188 211.457031 22.328125 211.457031 22.328125 C 211.078125 22.285156 210.804688 22.621094 210.535156 21.929688 C 210.367188 21.511719 210.242188 21.011719 210.304688 20.511719 C 210.324219 20.34375 210.386719 20.007812 210.429688 19.84375 C 210.449219 19.78125 210.46875 19.71875 210.492188 19.695312 C 210.554688 19.550781 210.492188 19.695312 210.554688 19.550781 C 210.617188 19.445312 210.617188 19.320312 210.617188 19.175781 C 210.636719 18.964844 210.699219 18.738281 210.804688 18.546875 C 211.015625 18.214844 211.078125 18.652344 211.246094 18.234375 C 211.351562 18.195312 211.265625 18.277344 211.414062 18.070312 C 211.601562 18.070312 211.558594 18.027344 211.726562 18.070312 C 211.851562 18.089844 211.8125 18.109375 211.957031 18.152344 C 212.1875 18.195312 212.1875 18.070312 212.25 18.382812 C 212.480469 18.382812 212.441406 18.320312 212.566406 18.359375 C 212.796875 18.421875 212.441406 18.546875 212.753906 18.445312 L 212.753906 18.320312 L 212.648438 18.003906 L 213.171875 17.984375 C 213.71875 18.003906 213.613281 17.964844 213.824219 18.421875 C 214.136719 18.421875 213.949219 18.359375 214.179688 18.277344 C 214.285156 18.421875 214.222656 18.402344 214.304688 18.527344 C 214.410156 18.734375 214.367188 18.589844 214.492188 18.757812 L 214.347656 19.175781 L 214.347656 19.195312 C 214.347656 19.214844 214.347656 19.214844 214.347656 19.238281 L 214.367188 19.300781 C 214.367188 19.363281 214.367188 19.40625 214.390625 19.507812 C 214.703125 20.886719 215.183594 20.199219 215.082031 19.46875 L 215.015625 18.902344 C 215.015625 18.796875 215.015625 18.863281 215.015625 18.734375 C 214.976562 18.382812 214.933594 18.089844 215.121094 17.816406 L 215.332031 17.609375 C 215.351562 17.589844 215.351562 17.589844 215.375 17.589844 L 215.542969 17.460938 C 215.875 17.335938 216.421875 16.792969 216.902344 16.753906 C 217.007812 16.585938 216.777344 16.691406 216.988281 16.605469 C 217.09375 16.542969 217.132812 16.605469 217.261719 16.460938 L 217.070312 16.335938 C 217.070312 16.335938 217.21875 16.316406 217.238281 16.148438 C 217.238281 15.980469 217.175781 15.980469 217.09375 15.875 L 217.21875 15.605469 L 217.027344 15.375 C 217.28125 15.519531 217.21875 15.167969 217.449219 15.082031 C 217.34375 15.394531 217.300781 15.3125 217.34375 15.5 C 217.425781 15.875 217.300781 15.605469 217.257812 15.898438 C 217.300781 15.875 217.511719 15.667969 217.554688 15.605469 C 217.679688 15.457031 217.699219 15.292969 217.617188 15.082031 C 217.785156 15.144531 217.65625 15.105469 217.742188 15.167969 C 217.824219 15.230469 217.742188 15.207031 217.867188 15.25 C 218.035156 15.125 217.886719 15.230469 218.011719 15.105469 L 218.140625 14.957031 C 218.347656 14.664062 218.160156 14.8125 218.203125 14.664062 C 218.371094 14.707031 218.789062 14.6875 218.933594 14.601562 C 218.726562 14.476562 218.726562 14.625 218.539062 14.519531 L 219.773438 14.476562 C 219.375 14.289062 219.605469 14.207031 219.625 13.789062 C 219.921875 13.746094 219.691406 13.746094 220.066406 13.644531 L 220.359375 13.539062 C 220.382812 13.515625 220.382812 13.515625 220.402344 13.515625 L 220.484375 13.496094 C 220.507812 13.496094 220.527344 13.496094 220.527344 13.496094 L 221.992188 13.226562 L 222.058594 13.371094 C 221.804688 13.308594 221.804688 13.308594 221.617188 13.433594 C 221.449219 13.539062 221.367188 13.539062 221.238281 13.640625 L 221.324219 13.976562 C 221.660156 13.933594 221.660156 13.832031 221.828125 13.746094 C 222.015625 13.640625 222.789062 13.558594 223 13.496094 C 223.019531 13.496094 223.042969 13.476562 223.042969 13.476562 C 223.230469 13.414062 223.441406 13.453125 223.542969 13.289062 L 223.480469 12.890625 C 223.105469 12.910156 222.917969 13.289062 222.894531 13.308594 L 222.519531 13.222656 C 222.371094 13.183594 222.308594 13.121094 222.203125 13.035156 C 221.890625 12.722656 222.121094 12.472656 222.140625 12.304688 C 221.847656 12.304688 221.890625 12.285156 221.660156 12.203125 C 221.722656 12.160156 221.660156 12.136719 221.804688 12.179688 C 221.847656 12.179688 221.910156 12.222656 221.972656 12.265625 C 221.996094 12.265625 222.015625 12.242188 222.015625 12.242188 C 222.078125 12.347656 221.953125 12.304688 222.246094 12.160156 C 222.371094 12.097656 222.390625 12.097656 222.476562 11.929688 C 222.140625 11.34375 221.050781 11.910156 220.675781 12.074219 C 220.546875 12.117188 220.484375 12.136719 220.378906 12.199219 C 220.296875 12.242188 220.234375 12.304688 220.128906 12.347656 C 220.191406 12.160156 220.296875 12.199219 220.609375 12.011719 C 220.757812 11.929688 221.007812 11.785156 221.15625 11.699219 C 221.492188 11.554688 221.09375 11.824219 221.742188 11.429688 C 222.015625 11.28125 223.042969 11.429688 223.1875 11.46875 C 223.480469 11.53125 223.796875 11.679688 224.089844 11.59375 L 224.507812 11.367188 C 224.675781 11.238281 224.613281 11.28125 224.863281 11.28125 C 225.035156 11.261719 225.078125 11.261719 225.242188 11.304688 Z M 235.910156 6.960938 C 235.785156 6.816406 235.910156 6.898438 235.699219 6.859375 C 235.574219 7.253906 235.679688 6.898438 235.492188 7.128906 C 235.929688 7.214844 235.910156 7.089844 236.097656 7.296875 L 236.121094 7.316406 C 236.183594 7.402344 236.121094 7.339844 236.160156 7.402344 C 235.972656 7.402344 235.867188 7.296875 235.65625 7.421875 C 235.867188 7.527344 235.804688 7.359375 236.097656 7.570312 C 236.246094 7.695312 235.972656 7.570312 236.222656 7.671875 L 236.097656 7.777344 C 235.992188 7.859375 236.035156 7.714844 236.015625 7.859375 C 236.390625 7.945312 236.328125 7.839844 236.644531 8.027344 C 237.105469 8.363281 237.335938 8.132812 237.816406 7.964844 C 237.960938 7.921875 238.128906 7.964844 238.277344 7.609375 C 237.898438 7.277344 238.089844 7.632812 237.835938 7.253906 C 237.667969 6.984375 237.773438 7.277344 237.460938 6.964844 C 237.25 7.066406 237.523438 7.109375 237.144531 7.089844 C 236.769531 7.089844 236.875 6.921875 236.664062 7.152344 L 236.515625 6.984375 C 236.414062 7.191406 236.621094 7.046875 236.453125 7.171875 C 236.140625 7.421875 236.476562 6.964844 235.867188 6.753906 C 235.824219 6.859375 235.867188 6.878906 235.910156 6.960938 Z M 240.960938 10.761719 C 240.792969 11.261719 240.75 11.074219 240.644531 11.136719 C 240.792969 11.429688 240.832031 11.242188 240.9375 11.304688 C 240.894531 11.617188 240.769531 11.386719 240.875 11.640625 C 240.960938 11.640625 240.980469 11.617188 241.0625 11.492188 C 241.0625 11.660156 240.960938 11.929688 241.042969 12.078125 C 241.167969 11.890625 241.023438 11.890625 241.230469 11.828125 C 241.335938 12.203125 241.230469 12.015625 241.253906 12.285156 C 241.292969 12.308594 241.460938 12.371094 241.484375 12.371094 C 241.628906 12.390625 241.460938 12.308594 241.652344 12.371094 L 241.652344 12.390625 L 241.691406 12.515625 C 241.777344 12.683594 241.816406 12.664062 241.859375 12.789062 C 241.882812 12.890625 241.859375 12.914062 241.859375 13.015625 C 241.546875 12.996094 241.671875 12.976562 241.484375 12.914062 C 241.503906 13.203125 241.523438 13.121094 241.589844 13.226562 L 241.609375 13.246094 C 241.691406 13.457031 241.503906 13.433594 241.378906 13.539062 C 241.484375 13.769531 241.441406 13.621094 241.691406 13.707031 C 241.859375 13.769531 241.882812 13.8125 242.089844 13.769531 C 241.859375 14 241.984375 13.746094 241.691406 13.914062 C 241.523438 13.976562 241.398438 14.207031 241.421875 14.3125 C 241.671875 14.375 241.714844 14.0625 241.902344 14.3125 C 241.945312 14.269531 241.984375 14.1875 242.007812 14.125 C 242.363281 14.226562 242.34375 14.144531 242.636719 14.1875 C 242.910156 14.226562 243.097656 14.289062 243.285156 14.082031 L 243.222656 14.039062 C 243.203125 14.039062 243.203125 14.019531 243.179688 14.019531 L 242.992188 13.894531 C 243.222656 13.746094 243.222656 13.789062 243.242188 13.433594 C 243.035156 13.332031 243.035156 13.332031 242.761719 13.332031 C 242.804688 13.140625 242.742188 13.101562 242.636719 12.914062 C 242.46875 12.535156 242.449219 12.621094 242.363281 12.558594 C 242.007812 12.285156 242.300781 11.953125 241.671875 11.890625 C 241.734375 11.804688 241.714844 11.847656 241.757812 11.742188 L 241.882812 11.222656 C 241.609375 11.136719 241.546875 11.136719 241.273438 11.199219 C 241.378906 10.785156 241.421875 11.136719 241.460938 10.804688 C 241.378906 10.761719 241.0625 10.742188 240.960938 10.761719 Z M 224.175781 2.371094 C 224.132812 2.597656 224.113281 2.535156 224.257812 2.660156 C 224.152344 2.722656 224.152344 2.722656 224.070312 2.765625 L 223.839844 2.683594 C 223.859375 2.683594 223.945312 2.621094 223.945312 2.621094 C 224.007812 2.558594 223.988281 2.578125 224.027344 2.535156 C 224.175781 2.328125 223.964844 2.472656 224.175781 2.371094 Z M 223.441406 4.792969 C 223.273438 4.957031 223.128906 4.855469 223.023438 5.042969 L 222.960938 5.210938 C 222.960938 5.210938 222.960938 5.230469 222.9375 5.25 C 222.835938 5.230469 222.6875 5.230469 222.582031 5.230469 C 222.5 5.207031 221.953125 4.980469 221.660156 5.398438 C 221.765625 5.605469 221.953125 5.605469 222.164062 5.585938 C 222.394531 5.5625 222.289062 5.5625 222.457031 5.585938 C 222.542969 5.585938 222.667969 5.5625 222.773438 5.5625 C 222.792969 6.085938 222.835938 5.960938 223.003906 5.980469 L 222.855469 6.148438 L 222.980469 6.398438 L 222.980469 6.421875 C 223.167969 6.503906 223.042969 6.441406 223.273438 6.398438 C 223.335938 6.671875 223.335938 6.585938 223.628906 6.691406 C 223.882812 6.753906 223.839844 6.835938 224.050781 6.878906 C 224.132812 6.398438 223.945312 6.523438 223.839844 6.191406 C 224.132812 6.296875 224.257812 6.503906 224.511719 6.628906 C 224.699219 6.441406 224.59375 6.585938 224.65625 6.355469 C 224.867188 6.316406 224.511719 6.441406 224.804688 6.378906 C 224.992188 6.335938 224.78125 6.378906 224.886719 5.917969 C 224.929688 5.648438 224.699219 5.980469 224.574219 5.605469 C 224.488281 5.375 224.679688 4.917969 224.972656 5.230469 C 225.265625 5.523438 224.847656 5.335938 225.078125 5.667969 C 225.117188 5.730469 225.265625 5.792969 225.347656 5.816406 C 225.832031 5.335938 225.578125 5.753906 225.832031 5.542969 L 225.9375 5.355469 C 226.0625 5.417969 226.144531 5.355469 226.292969 5.292969 C 226.207031 5.1875 226.1875 5.167969 226.082031 5.082031 L 225.976562 5.042969 C 225.664062 4.875 225.894531 5.019531 225.789062 4.832031 L 225.703125 4.730469 C 225.558594 4.5625 225.664062 4.644531 225.328125 4.605469 C 225.179688 4.207031 225.117188 4.480469 225.117188 4.3125 C 225.242188 4.1875 225.308594 4.1875 225.578125 4.226562 C 225.558594 4.144531 225.515625 4.164062 225.539062 4.019531 C 225.558594 3.894531 225.621094 3.914062 225.621094 3.789062 L 225.433594 3.769531 C 225.558594 3.539062 225.496094 3.875 225.515625 3.539062 C 225.371094 3.476562 225.265625 3.414062 225.035156 3.414062 C 225.265625 3.308594 225.160156 3.476562 225.242188 3.269531 L 225.117188 3.164062 C 224.992188 3.101562 225.140625 3.164062 224.972656 3.121094 L 224.78125 3.289062 C 224.742188 2.953125 224.972656 2.890625 224.574219 2.703125 C 224.53125 2.683594 224.511719 2.683594 224.449219 2.640625 L 224.386719 2.601562 C 224.511719 2.601562 224.71875 2.640625 224.804688 2.578125 C 224.824219 2.328125 224.867188 2.410156 224.554688 2.347656 C 224.386719 2.328125 224.34375 2.285156 224.175781 2.371094 C 224.15625 2.121094 223.964844 2.203125 223.359375 2.390625 C 223.023438 2.496094 223.167969 2.515625 223.023438 2.640625 C 222.707031 2.851562 222.960938 2.601562 222.707031 2.914062 C 222.707031 2.539062 222.6875 2.726562 222.835938 2.578125 C 223.273438 2.160156 223.464844 2.351562 223.671875 2.183594 C 223.167969 1.890625 222.332031 2.578125 221.933594 2.726562 C 221.996094 2.976562 222.078125 2.808594 222.121094 2.976562 C 222.015625 2.953125 222.015625 2.933594 221.953125 2.933594 C 221.828125 2.914062 222.015625 2.914062 221.828125 2.914062 C 221.828125 2.914062 221.808594 2.933594 221.785156 2.933594 C 221.785156 2.914062 221.765625 2.933594 221.746094 2.933594 C 221.703125 3.082031 221.660156 3.164062 222.019531 3.289062 L 222.875 3.519531 C 223.464844 3.664062 223.085938 3.601562 223.402344 3.433594 C 223.714844 4.207031 223.863281 4.207031 223.820312 4.644531 Z M 250.722656 17.128906 L 250.746094 17.570312 L 250.515625 17.570312 L 250.410156 17.191406 C 250.535156 17.066406 250.683594 16.921875 250.765625 16.859375 C 250.746094 17.003906 250.597656 17.171875 250.722656 17.128906 Z M 251.078125 18.339844 C 251.226562 18.570312 251.605469 19.28125 251.332031 19.34375 C 251.183594 19.382812 251.207031 19.40625 251.078125 19.34375 L 250.847656 19.175781 C 250.828125 19.070312 250.785156 18.90625 250.554688 18.90625 C 250.324219 18.925781 250.367188 19.050781 250.179688 19.195312 C 249.84375 19.15625 249.824219 19.09375 249.738281 18.820312 C 249.613281 18.382812 249.675781 18.652344 249.71875 18.195312 C 249.738281 18.046875 249.695312 17.984375 249.695312 17.902344 C 249.695312 17.378906 249.738281 17.921875 249.800781 17.566406 C 249.824219 17.421875 249.800781 17.503906 249.78125 17.402344 C 249.761719 17.191406 249.78125 17.066406 249.90625 16.921875 C 250.179688 17.109375 249.761719 17.191406 250.261719 17.171875 C 250.242188 17.191406 250.199219 17.359375 250.199219 17.378906 C 250.179688 17.527344 250.179688 17.441406 250.242188 17.566406 C 250.410156 17.839844 250.304688 17.714844 250.386719 17.964844 L 250.554688 17.777344 C 250.617188 17.714844 250.449219 17.796875 250.660156 17.714844 C 250.828125 17.796875 250.578125 17.628906 250.847656 17.945312 C 250.953125 18.070312 251.058594 18.089844 251.078125 18.339844 Z M 215.667969 13.808594 C 215.835938 13.726562 215.730469 13.746094 215.941406 13.769531 C 215.980469 13.601562 215.898438 13.726562 216.003906 13.582031 C 216.210938 13.769531 215.878906 13.644531 216.738281 13.558594 L 217.03125 13.582031 C 216.945312 13.683594 216.988281 13.707031 216.757812 13.746094 C 216.421875 13.851562 216.171875 13.976562 216.003906 13.976562 C 215.75 14 215.773438 14 215.667969 13.808594 Z M 217.007812 13.332031 C 217.28125 13.015625 217.238281 13.351562 217.972656 13.203125 C 217.953125 13.332031 217.910156 13.433594 217.867188 13.519531 C 217.699219 13.476562 217.574219 13.496094 217.386719 13.414062 C 217.070312 13.289062 217.324219 13.414062 217.09375 13.371094 Z M 215.773438 10.910156 C 215.8125 10.972656 215.792969 10.949219 215.878906 11.011719 L 215.980469 11.074219 C 215.980469 11.054688 216.023438 11.074219 216.023438 11.097656 C 216.003906 11.261719 215.980469 11.222656 216.023438 11.324219 L 216.085938 11.429688 C 216.171875 11.597656 216.128906 11.703125 216.109375 11.890625 C 216.003906 11.890625 215.648438 11.828125 215.519531 11.847656 C 215.4375 11.804688 215.332031 11.742188 215.289062 11.640625 C 215.289062 11.554688 215.289062 11.617188 215.332031 11.535156 L 215.417969 11.453125 C 214.957031 11.472656 215.121094 11.703125 214.578125 11.617188 C 214.265625 11.578125 214.429688 11.660156 214.285156 11.554688 C 214.578125 11.453125 214.789062 11.410156 215.058594 11.265625 C 215.394531 11.117188 214.957031 11.179688 215.773438 10.910156 Z M 215.332031 12.160156 C 215.605469 12.121094 215.792969 12.015625 216.066406 12.140625 C 216.316406 12.015625 215.835938 12.246094 216.171875 12.054688 C 216.191406 12.035156 216.148438 12.035156 216.277344 11.992188 C 216.675781 12.390625 216.945312 12.015625 217.113281 12.726562 C 216.945312 12.871094 217.050781 12.851562 216.863281 12.890625 L 216.695312 12.539062 C 216.695312 12.558594 216.695312 12.558594 216.695312 12.578125 C 216.609375 12.914062 216.589844 12.746094 216.441406 12.976562 C 216.296875 13.226562 216.464844 13.246094 216.171875 13.332031 L 216.191406 12.933594 C 215.878906 12.890625 216.066406 12.976562 215.917969 12.871094 C 216.109375 12.746094 216.191406 12.683594 216.191406 12.433594 C 216.128906 12.347656 215.917969 12.246094 215.835938 12.222656 C 215.585938 12.453125 215.375 12.472656 215.1875 12.765625 C 214.976562 13.121094 215.207031 13.289062 214.828125 13.601562 C 214.683594 13.683594 214.789062 13.664062 214.621094 13.683594 C 214.515625 13.476562 214.683594 13.140625 214.789062 12.953125 C 214.957031 12.703125 215.082031 12.496094 215.269531 12.410156 L 215.1875 12.390625 L 215.164062 12.390625 C 214.789062 12.308594 215.289062 12.496094 215.039062 12.371094 C 215.1875 12.285156 215.226562 12.285156 215.332031 12.160156 Z M 214.347656 9.65625 C 214.328125 9.425781 214.285156 9.320312 214.304688 9.050781 C 214.367188 8.695312 214.558594 8.714844 214.660156 8.714844 L 214.390625 9.738281 L 214.136719 10.03125 C 214.074219 9.863281 214.222656 9.78125 214.347656 9.65625 Z M 214.347656 9.65625 " fill-opacity="1" fill-rule="evenodd"/></g><path fill="#0b6822" d="M 225.703125 50.765625 C 220.65625 50.617188 216.316406 48.886719 212.714844 45.523438 C 217.910156 42.601562 224.679688 40.972656 233.058594 40.660156 C 244.585938 41.242188 252.273438 38.757812 256.128906 33.164062 C 251.605469 44.605469 241.460938 50.449219 225.703125 50.765625 Z M 225.703125 50.765625 " fill-opacity="1" fill-rule="evenodd"/><g fill="#226b20" fill-opacity="1"><g transform="translate(29.096644, 22.483827)"><g><path d="M 13.335938 -5.589844 C 12.65625 -4.136719 11.011719 -3.144531 9.316406 -3.144531 C 6.65625 -3.144531 4.527344 -5.421875 4.527344 -8.230469 C 4.527344 -11.011719 6.65625 -13.3125 9.316406 -13.3125 C 10.988281 -13.3125 12.632812 -12.390625 13.3125 -10.914062 L 17.351562 -10.914062 C 16.238281 -14.277344 13.070312 -16.699219 9.316406 -16.699219 C 4.648438 -16.699219 0.847656 -12.898438 0.847656 -8.230469 C 0.847656 -3.558594 4.648438 0.242188 9.316406 0.242188 C 13.070312 0.242188 16.261719 -2.203125 17.375 -5.589844 Z M 13.335938 -5.589844 "/></g></g></g><g fill="#226b20" fill-opacity="1"><g transform="translate(47.078508, 22.483827)"><g><path d="M 6.945312 -2.515625 C 4.984375 -2.515625 4.453125 -3.945312 4.453125 -5.300781 C 4.453125 -6.632812 5.035156 -8.058594 6.945312 -8.058594 C 8.832031 -8.058594 9.414062 -6.632812 9.414062 -5.300781 C 9.414062 -3.945312 8.882812 -2.515625 6.945312 -2.515625 Z M 6.945312 -10.890625 C 3.605469 -10.890625 0.847656 -8.664062 0.847656 -5.324219 C 0.847656 -1.910156 3.535156 0.21875 6.945312 0.21875 C 10.335938 0.21875 13.019531 -1.910156 13.019531 -5.324219 C 13.019531 -8.664062 10.261719 -10.890625 6.945312 -10.890625 Z M 6.945312 -10.890625 "/></g></g></g><g fill="#226b20" fill-opacity="1"><g transform="translate(60.946077, 22.483827)"><g><path d="M 12.367188 -6.050781 C 12.367188 -8.953125 11.207031 -10.914062 8.347656 -10.914062 C 6.945312 -10.914062 5.808594 -10.285156 5.082031 -9.367188 L 5.082031 -10.671875 L 1.453125 -10.671875 L 1.453125 0 L 5.082031 0 L 5.082031 -5.324219 C 5.082031 -6.777344 5.976562 -7.988281 7.117188 -7.988281 C 8.253906 -7.988281 8.738281 -7.308594 8.738281 -6.050781 L 8.738281 0 L 12.367188 0 Z M 12.367188 -6.050781 "/></g></g></g><g fill="#226b20" fill-opacity="1"><g transform="translate(74.402218, 22.483827)"><g><path d="M 6.898438 -8.082031 C 8.15625 -8.082031 8.953125 -7.429688 9.003906 -6.390625 L 12.609375 -6.390625 C 12.441406 -8.859375 10.238281 -10.914062 6.777344 -10.914062 C 3.21875 -10.914062 0.847656 -8.375 0.847656 -5.324219 C 0.847656 -2.273438 3.074219 0.242188 6.777344 0.242188 C 10.019531 0.242188 12.171875 -1.597656 12.535156 -3.96875 L 9.003906 -3.96875 C 8.882812 -3 8.011719 -2.515625 6.898438 -2.515625 C 5.203125 -2.515625 4.71875 -4.066406 4.71875 -5.300781 C 4.71875 -6.511719 5.25 -8.082031 6.898438 -8.082031 Z M 6.898438 -8.082031 "/></g></g></g><g fill="#226b20" fill-opacity="1"><g transform="translate(87.761555, 22.483827)"><g><path d="M 1.257812 -14.328125 C 1.257812 -13.164062 2.203125 -12.199219 3.386719 -12.199219 C 4.550781 -12.199219 5.519531 -13.164062 5.519531 -14.328125 C 5.519531 -15.511719 4.550781 -16.457031 3.386719 -16.457031 C 2.203125 -16.457031 1.257812 -15.511719 1.257812 -14.328125 Z M 5.203125 0 L 5.203125 -10.671875 L 1.574219 -10.671875 L 1.574219 0 Z M 5.203125 0 "/></g></g></g><g fill="#226b20" fill-opacity="1"><g transform="translate(94.538028, 22.483827)"><g><path d="M 4.742188 -6.605469 C 4.742188 -6.605469 4.863281 -8.589844 7.140625 -8.589844 C 9.34375 -8.589844 9.511719 -6.605469 9.511719 -6.605469 Z M 12.996094 -5.566406 C 12.996094 -8.980469 10.308594 -10.914062 7.066406 -10.914062 C 3.484375 -10.914062 0.847656 -8.664062 0.847656 -5.324219 C 0.847656 -1.9375 3.386719 0.242188 7.066406 0.242188 C 9.898438 0.242188 12.171875 -1.160156 12.800781 -3.96875 L 9.101562 -3.96875 C 9.074219 -3.195312 8.277344 -2.347656 6.996094 -2.347656 C 5.566406 -2.347656 4.695312 -3.65625 4.695312 -4.890625 L 12.972656 -4.890625 C 12.972656 -5.105469 12.996094 -5.347656 12.996094 -5.566406 Z M 12.996094 -5.566406 "/></g></g></g><g fill="#226b20" fill-opacity="1"><g transform="translate(108.381399, 22.483827)"><g><path d="M 12.367188 -6.050781 C 12.367188 -8.953125 11.207031 -10.914062 8.347656 -10.914062 C 6.945312 -10.914062 5.808594 -10.285156 5.082031 -9.367188 L 5.082031 -10.671875 L 1.453125 -10.671875 L 1.453125 0 L 5.082031 0 L 5.082031 -5.324219 C 5.082031 -6.777344 5.976562 -7.988281 7.117188 -7.988281 C 8.253906 -7.988281 8.738281 -7.308594 8.738281 -6.050781 L 8.738281 0 L 12.367188 0 Z M 12.367188 -6.050781 "/></g></g></g><g fill="#226b20" fill-opacity="1"><g transform="translate(121.83754, 22.483827)"><g><path d="M 6.898438 -8.082031 C 8.15625 -8.082031 8.953125 -7.429688 9.003906 -6.390625 L 12.609375 -6.390625 C 12.441406 -8.859375 10.238281 -10.914062 6.777344 -10.914062 C 3.21875 -10.914062 0.847656 -8.375 0.847656 -5.324219 C 0.847656 -2.273438 3.074219 0.242188 6.777344 0.242188 C 10.019531 0.242188 12.171875 -1.597656 12.535156 -3.96875 L 9.003906 -3.96875 C 8.882812 -3 8.011719 -2.515625 6.898438 -2.515625 C 5.203125 -2.515625 4.71875 -4.066406 4.71875 -5.300781 C 4.71875 -6.511719 5.25 -8.082031 6.898438 -8.082031 Z M 6.898438 -8.082031 "/></g></g></g><g fill="#226b20" fill-opacity="1"><g transform="translate(135.196876, 22.483827)"><g><path d="M 1.257812 -14.328125 C 1.257812 -13.164062 2.203125 -12.199219 3.386719 -12.199219 C 4.550781 -12.199219 5.519531 -13.164062 5.519531 -14.328125 C 5.519531 -15.511719 4.550781 -16.457031 3.386719 -16.457031 C 2.203125 -16.457031 1.257812 -15.511719 1.257812 -14.328125 Z M 5.203125 0 L 5.203125 -10.671875 L 1.574219 -10.671875 L 1.574219 0 Z M 5.203125 0 "/></g></g></g><g fill="#226b20" fill-opacity="1"><g transform="translate(141.97335, 22.483827)"><g><path d="M 9.800781 -5.324219 C 9.800781 -3.921875 8.710938 -2.664062 7.261719 -2.664062 C 5.808594 -2.664062 4.71875 -3.921875 4.71875 -5.324219 C 4.71875 -6.726562 5.808594 -7.988281 7.261719 -7.988281 C 8.710938 -7.988281 9.800781 -6.726562 9.800781 -5.324219 Z M 13.433594 -10.648438 L 9.800781 -10.648438 L 9.800781 -9.367188 C 8.859375 -10.527344 7.503906 -10.914062 6.148438 -10.914062 C 3.121094 -10.914062 0.847656 -8.277344 0.847656 -5.324219 C 0.847656 -2.371094 3.121094 0.242188 6.148438 0.242188 C 7.503906 0.242188 9.074219 -0.195312 9.800781 -1.28125 L 9.800781 0 L 13.433594 0 Z M 13.433594 -10.648438 "/></g></g></g><g fill="#226b20" fill-opacity="1"><g transform="translate(156.848771, 22.483827)"><g/></g></g><g fill="#226b20" fill-opacity="1"><g transform="translate(3.182774, 56.097279)"><g><path d="M 21.976562 0 L 18.78125 -16.457031 L 14.472656 -16.457031 L 11.058594 -4.914062 L 7.625 -16.457031 L 3.316406 -16.457031 L 0.121094 0 L 4.113281 0 L 6.050781 -11.351562 L 9.269531 0 L 12.828125 0 L 16.046875 -11.351562 L 17.980469 0 Z M 21.976562 0 "/></g></g></g><g fill="#226b20" fill-opacity="1"><g transform="translate(25.27892, 56.097279)"><g><path d="M 4.742188 -6.605469 C 4.742188 -6.605469 4.863281 -8.589844 7.140625 -8.589844 C 9.34375 -8.589844 9.511719 -6.605469 9.511719 -6.605469 Z M 12.996094 -5.566406 C 12.996094 -8.980469 10.308594 -10.914062 7.066406 -10.914062 C 3.484375 -10.914062 0.847656 -8.664062 0.847656 -5.324219 C 0.847656 -1.9375 3.386719 0.242188 7.066406 0.242188 C 9.898438 0.242188 12.171875 -1.160156 12.800781 -3.96875 L 9.101562 -3.96875 C 9.074219 -3.195312 8.277344 -2.347656 6.996094 -2.347656 C 5.566406 -2.347656 4.695312 -3.65625 4.695312 -4.890625 L 12.972656 -4.890625 C 12.972656 -5.105469 12.996094 -5.347656 12.996094 -5.566406 Z M 12.996094 -5.566406 "/></g></g></g><g fill="#226b20" fill-opacity="1"><g transform="translate(39.122291, 56.097279)"><g><path d="M 9.800781 -5.324219 C 9.800781 -3.921875 8.710938 -2.664062 7.261719 -2.664062 C 5.808594 -2.664062 4.71875 -3.921875 4.71875 -5.324219 C 4.71875 -6.726562 5.808594 -7.988281 7.261719 -7.988281 C 8.710938 -7.988281 9.800781 -6.726562 9.800781 -5.324219 Z M 13.433594 -18.152344 L 9.800781 -18.152344 L 9.800781 -9.367188 C 8.859375 -10.527344 7.503906 -10.914062 6.148438 -10.914062 C 3.121094 -10.914062 0.847656 -8.277344 0.847656 -5.324219 C 0.847656 -2.371094 3.121094 0.242188 6.148438 0.242188 C 7.503906 0.242188 9.074219 -0.195312 9.800781 -1.28125 L 9.800781 0 L 13.433594 0 Z M 13.433594 -18.152344 "/></g></g></g><g fill="#226b20" fill-opacity="1"><g transform="translate(54.006337, 56.097279)"><g><path d="M 1.257812 -14.328125 C 1.257812 -13.164062 2.203125 -12.199219 3.386719 -12.199219 C 4.550781 -12.199219 5.519531 -13.164062 5.519531 -14.328125 C 5.519531 -15.511719 4.550781 -16.457031 3.386719 -16.457031 C 2.203125 -16.457031 1.257812 -15.511719 1.257812 -14.328125 Z M 5.203125 0 L 5.203125 -10.671875 L 1.574219 -10.671875 L 1.574219 0 Z M 5.203125 0 "/></g></g></g><g fill="#226b20" fill-opacity="1"><g transform="translate(60.782811, 56.097279)"><g><path d="M 6.945312 -2.515625 C 4.984375 -2.515625 4.453125 -3.945312 4.453125 -5.300781 C 4.453125 -6.632812 5.035156 -8.058594 6.945312 -8.058594 C 8.832031 -8.058594 9.414062 -6.632812 9.414062 -5.300781 C 9.414062 -3.945312 8.882812 -2.515625 6.945312 -2.515625 Z M 6.945312 -10.890625 C 3.605469 -10.890625 0.847656 -8.664062 0.847656 -5.324219 C 0.847656 -1.910156 3.535156 0.21875 6.945312 0.21875 C 10.335938 0.21875 13.019531 -1.910156 13.019531 -5.324219 C 13.019531 -8.664062 10.261719 -10.890625 6.945312 -10.890625 Z M 6.945312 -10.890625 "/></g></g></g><g fill="#226b20" fill-opacity="1"><g transform="translate(74.65038, 56.097279)"><g><path d="M 9.800781 -5.324219 C 9.800781 -3.921875 8.710938 -2.664062 7.261719 -2.664062 C 5.808594 -2.664062 4.71875 -3.921875 4.71875 -5.324219 C 4.71875 -6.726562 5.808594 -7.988281 7.261719 -7.988281 C 8.710938 -7.988281 9.800781 -6.726562 9.800781 -5.324219 Z M 13.433594 -10.648438 L 9.800781 -10.648438 L 9.800781 -9.367188 C 8.859375 -10.527344 7.503906 -10.914062 6.148438 -10.914062 C 3.121094 -10.914062 0.847656 -8.277344 0.847656 -5.324219 C 0.847656 -2.371094 3.121094 0.242188 6.148438 0.242188 C 7.503906 0.242188 9.074219 -0.195312 9.800781 -1.28125 L 9.800781 0 L 13.433594 0 Z M 13.433594 -10.648438 "/></g></g></g><g fill="#226b20" fill-opacity="1"><g transform="translate(89.534427, 56.097279)"><g><path d="M 12.222656 -5.421875 C 12.222656 -6.632812 12.777344 -7.988281 14.183594 -7.988281 C 15.390625 -7.988281 15.730469 -6.945312 15.730469 -5.90625 L 15.730469 0 L 19.363281 0 L 19.363281 -5.90625 C 19.363281 -8.664062 18.03125 -10.914062 15.246094 -10.914062 C 13.578125 -10.914062 12.390625 -10.429688 11.351562 -9.101562 C 10.601562 -10.308594 9.390625 -10.914062 8.035156 -10.914062 C 6.847656 -10.914062 5.808594 -10.285156 5.082031 -9.367188 L 5.082031 -10.671875 L 1.453125 -10.671875 L 1.453125 0 L 5.082031 0 L 5.082031 -5.324219 C 5.082031 -6.390625 5.808594 -7.988281 7.042969 -7.988281 C 8.253906 -7.988281 8.589844 -6.945312 8.589844 -5.90625 L 8.589844 0 L 12.222656 0 Z M 12.222656 -5.421875 "/></g></g></g><g fill="#226b20" fill-opacity="1"><g transform="translate(109.98486, 56.097279)"><g><path d="M 5.082031 -5.324219 C 5.082031 -6.726562 6.171875 -7.988281 7.625 -7.988281 C 9.074219 -7.988281 10.164062 -6.726562 10.164062 -5.324219 C 10.164062 -3.921875 9.074219 -2.664062 7.625 -2.664062 C 6.171875 -2.664062 5.082031 -3.921875 5.082031 -5.324219 Z M 5.082031 0 L 5.082031 -1.28125 C 5.808594 -0.195312 7.355469 0.242188 8.738281 0.242188 C 11.761719 0.242188 14.035156 -2.371094 14.035156 -5.324219 C 14.035156 -8.277344 11.761719 -10.914062 8.738281 -10.914062 C 7.355469 -10.914062 6.027344 -10.527344 5.082031 -9.367188 L 5.082031 -18.152344 L 1.453125 -18.152344 L 1.453125 0 Z M 5.082031 0 "/></g></g></g><g fill="#226b20" fill-opacity="1"><g transform="translate(124.868907, 56.097279)"><g><path d="M 1.257812 -14.328125 C 1.257812 -13.164062 2.203125 -12.199219 3.386719 -12.199219 C 4.550781 -12.199219 5.519531 -13.164062 5.519531 -14.328125 C 5.519531 -15.511719 4.550781 -16.457031 3.386719 -16.457031 C 2.203125 -16.457031 1.257812 -15.511719 1.257812 -14.328125 Z M 5.203125 0 L 5.203125 -10.671875 L 1.574219 -10.671875 L 1.574219 0 Z M 5.203125 0 "/></g></g></g><g fill="#226b20" fill-opacity="1"><g transform="translate(131.64538, 56.097279)"><g><path d="M 4.742188 -6.605469 C 4.742188 -6.605469 4.863281 -8.589844 7.140625 -8.589844 C 9.34375 -8.589844 9.511719 -6.605469 9.511719 -6.605469 Z M 12.996094 -5.566406 C 12.996094 -8.980469 10.308594 -10.914062 7.066406 -10.914062 C 3.484375 -10.914062 0.847656 -8.664062 0.847656 -5.324219 C 0.847656 -1.9375 3.386719 0.242188 7.066406 0.242188 C 9.898438 0.242188 12.171875 -1.160156 12.800781 -3.96875 L 9.101562 -3.96875 C 9.074219 -3.195312 8.277344 -2.347656 6.996094 -2.347656 C 5.566406 -2.347656 4.695312 -3.65625 4.695312 -4.890625 L 12.972656 -4.890625 C 12.972656 -5.105469 12.996094 -5.347656 12.996094 -5.566406 Z M 12.996094 -5.566406 "/></g></g></g><g fill="#226b20" fill-opacity="1"><g transform="translate(145.488751, 56.097279)"><g><path d="M 12.367188 -6.050781 C 12.367188 -8.953125 11.207031 -10.914062 8.347656 -10.914062 C 6.945312 -10.914062 5.808594 -10.285156 5.082031 -9.367188 L 5.082031 -10.671875 L 1.453125 -10.671875 L 1.453125 0 L 5.082031 0 L 5.082031 -5.324219 C 5.082031 -6.777344 5.976562 -7.988281 7.117188 -7.988281 C 8.253906 -7.988281 8.738281 -7.308594 8.738281 -6.050781 L 8.738281 0 L 12.367188 0 Z M 12.367188 -6.050781 "/></g></g></g><g fill="#226b20" fill-opacity="1"><g transform="translate(158.944892, 56.097279)"><g><path d="M 6.027344 -7.867188 L 7.960938 -7.867188 L 7.960938 -10.671875 L 6.027344 -10.671875 L 6.027344 -14.738281 L 2.421875 -14.738281 L 2.421875 -10.671875 L 0.484375 -10.671875 L 0.484375 -7.867188 L 2.421875 -7.867188 L 2.421875 0 L 6.027344 0 Z M 6.027344 -7.867188 "/></g></g></g><g fill="#226b20" fill-opacity="1"><g transform="translate(167.391287, 56.097279)"><g><path d="M 9.800781 -5.324219 C 9.800781 -3.921875 8.710938 -2.664062 7.261719 -2.664062 C 5.808594 -2.664062 4.71875 -3.921875 4.71875 -5.324219 C 4.71875 -6.726562 5.808594 -7.988281 7.261719 -7.988281 C 8.710938 -7.988281 9.800781 -6.726562 9.800781 -5.324219 Z M 13.433594 -10.648438 L 9.800781 -10.648438 L 9.800781 -9.367188 C 8.859375 -10.527344 7.503906 -10.914062 6.148438 -10.914062 C 3.121094 -10.914062 0.847656 -8.277344 0.847656 -5.324219 C 0.847656 -2.371094 3.121094 0.242188 6.148438 0.242188 C 7.503906 0.242188 9.074219 -0.195312 9.800781 -1.28125 L 9.800781 0 L 13.433594 0 Z M 13.433594 -10.648438 "/></g></g></g><g fill="#226b20" fill-opacity="1"><g transform="translate(182.275344, 56.097279)"><g><path d="M 5.082031 0 L 5.082031 -18.152344 L 1.453125 -18.152344 L 1.453125 0 Z M 5.082031 0 "/></g></g></g></svg>